<?xml version="1.0" encoding="UTF-8" standalone="no"?>
<!DOCTYPE svg PUBLIC "-//W3C//DTD SVG 1.1//EN"
 "http://www.w3.org/Graphics/SVG/1.1/DTD/svg11.dtd">
<!-- Generated by graphviz version 2.40.1 (20161225.0304)
 -->
<!-- Title: dependencies Pages: 1 -->
<svg width="1086pt" height="284pt"
 viewBox="0.00 0.00 1086.00 284.00" xmlns="http://www.w3.org/2000/svg" xmlns:xlink="http://www.w3.org/1999/xlink">
<g id="graph0" class="graph" transform="scale(1 1) rotate(0) translate(4 280)">
<title>dependencies</title>
<polygon fill="#ffffff" stroke="transparent" points="-4,4 -4,-280 1082,-280 1082,4 -4,4"/>
<text text-anchor="start" x="518.0091" y="-42.4" font-family="sans-serif" font-weight="bold" font-size="14.00" fill="#000000">Legend</text>
<polygon fill="#ffffb3" stroke="transparent" points="305,-10 305,-30 325,-30 325,-10 305,-10"/>
<text text-anchor="start" x="328.629" y="-15.4" font-family="sans-serif" font-size="14.00" fill="#000000"> &#160;Declarations</text>
<polygon fill="#8dd3c7" stroke="transparent" points="418,-10 418,-30 438,-30 438,-10 418,-10"/>
<text text-anchor="start" x="441.7251" y="-15.4" font-family="sans-serif" font-size="14.00" fill="#000000"> &#160;Module</text>
<polygon fill="#80b1d3" stroke="transparent" points="504,-10 504,-30 524,-30 524,-10 504,-10"/>
<text text-anchor="start" x="527.7812" y="-15.4" font-family="sans-serif" font-size="14.00" fill="#000000"> &#160;Bootstrap</text>
<polygon fill="#fdb462" stroke="transparent" points="601,-10 601,-30 621,-30 621,-10 601,-10"/>
<text text-anchor="start" x="624.6732" y="-15.4" font-family="sans-serif" font-size="14.00" fill="#000000"> &#160;Providers</text>
<polygon fill="#fb8072" stroke="transparent" points="697,-10 697,-30 717,-30 717,-10 697,-10"/>
<text text-anchor="start" x="720.7258" y="-15.4" font-family="sans-serif" font-size="14.00" fill="#000000"> &#160;Exports</text>
<g id="clust1" class="cluster">
<title>cluster_MatGoogleMapsAutocompleteModule</title>
<polygon fill="none" stroke="#000000" stroke-dasharray="1,5" points="8,-70 8,-268 1070,-268 1070,-70 8,-70"/>
</g>
<g id="clust2" class="cluster">
<title>cluster_MatGoogleMapsAutocompleteModule_declarations</title>
<polygon fill="none" stroke="#000000" points="16,-78 16,-130 1062,-130 1062,-78 16,-78"/>
</g>
<g id="clust8" class="cluster">
<title>cluster_MatGoogleMapsAutocompleteModule_exports</title>
<polygon fill="none" stroke="#000000" points="176,-208 176,-260 921,-260 921,-208 176,-208"/>
</g>
<!-- MatGoogleMapsAutocompleteComponent -->
<g id="node1" class="node">
<title>MatGoogleMapsAutocompleteComponent</title>
<polygon fill="#ffffb3" stroke="#000000" points="1053.5111,-122 798.4889,-122 798.4889,-86 1053.5111,-86 1053.5111,-122"/>
<text text-anchor="middle" x="926" y="-99.8" font-family="Times,serif" font-size="14.00" fill="#000000">MatGoogleMapsAutocompleteComponent</text>
</g>
<!-- MatGoogleMapsAutocompleteModule -->
<g id="node5" class="node">
<title>MatGoogleMapsAutocompleteModule</title>
<polygon fill="#8dd3c7" stroke="#000000" points="629.7282,-187 626.7282,-191 605.7282,-191 602.7282,-187 396.2718,-187 396.2718,-151 629.7282,-151 629.7282,-187"/>
<text text-anchor="middle" x="513" y="-164.8" font-family="Times,serif" font-size="14.00" fill="#000000">MatGoogleMapsAutocompleteModule</text>
</g>
<!-- MatGoogleMapsAutocompleteComponent&#45;&gt;MatGoogleMapsAutocompleteModule -->
<g id="edge1" class="edge">
<title>MatGoogleMapsAutocompleteComponent&#45;&gt;MatGoogleMapsAutocompleteModule</title>
<path fill="none" stroke="#000000" d="M855.375,-122.0225C855.375,-139.3734 855.375,-163 855.375,-163 855.375,-163 639.8685,-163 639.8685,-163"/>
<polygon fill="#000000" stroke="#000000" points="639.8685,-159.5001 629.8685,-163 639.8684,-166.5001 639.8685,-159.5001"/>
</g>
<!-- MatGoogleMapsAutocompleteDirective -->
<g id="node2" class="node">
<title>MatGoogleMapsAutocompleteDirective</title>
<polygon fill="#ffffb3" stroke="#000000" points="780.2611,-122 537.7389,-122 537.7389,-86 780.2611,-86 780.2611,-122"/>
<text text-anchor="middle" x="659" y="-99.8" font-family="Times,serif" font-size="14.00" fill="#000000">MatGoogleMapsAutocompleteDirective</text>
</g>
<!-- MatGoogleMapsAutocompleteDirective&#45;&gt;MatGoogleMapsAutocompleteModule -->
<g id="edge2" class="edge">
<title>MatGoogleMapsAutocompleteDirective&#45;&gt;MatGoogleMapsAutocompleteModule</title>
<path fill="none" stroke="#000000" d="M583.8668,-122.1061C583.8668,-122.1061 583.8668,-140.991 583.8668,-140.991"/>
<polygon fill="#000000" stroke="#000000" points="580.3668,-140.9909 583.8668,-150.991 587.3668,-140.991 580.3668,-140.9909"/>
</g>
<!-- MatSearchGoogleMapsAutocompleteComponent -->
<g id="node3" class="node">
<title>MatSearchGoogleMapsAutocompleteComponent</title>
<polygon fill="#ffffb3" stroke="#000000" points="519.5979,-122 226.4021,-122 226.4021,-86 519.5979,-86 519.5979,-122"/>
<text text-anchor="middle" x="373" y="-99.8" font-family="Times,serif" font-size="14.00" fill="#000000">MatSearchGoogleMapsAutocompleteComponent</text>
</g>
<!-- MatSearchGoogleMapsAutocompleteComponent&#45;&gt;MatGoogleMapsAutocompleteModule -->
<g id="edge3" class="edge">
<title>MatSearchGoogleMapsAutocompleteComponent&#45;&gt;MatGoogleMapsAutocompleteModule</title>
<path fill="none" stroke="#000000" d="M457.9674,-122.1061C457.9674,-122.1061 457.9674,-140.991 457.9674,-140.991"/>
<polygon fill="#000000" stroke="#000000" points="454.4675,-140.9909 457.9674,-150.991 461.4675,-140.991 454.4675,-140.9909"/>
</g>
<!-- MatValidateAddressDirective -->
<g id="node4" class="node">
<title>MatValidateAddressDirective</title>
<polygon fill="#ffffb3" stroke="#000000" points="207.9258,-122 24.0742,-122 24.0742,-86 207.9258,-86 207.9258,-122"/>
<text text-anchor="middle" x="116" y="-99.8" font-family="Times,serif" font-size="14.00" fill="#000000">MatValidateAddressDirective</text>
</g>
<!-- MatValidateAddressDirective&#45;&gt;MatGoogleMapsAutocompleteModule -->
<g id="edge4" class="edge">
<title>MatValidateAddressDirective&#45;&gt;MatGoogleMapsAutocompleteModule</title>
<path fill="none" stroke="#000000" d="M196.125,-122.0225C196.125,-139.3734 196.125,-163 196.125,-163 196.125,-163 385.9077,-163 385.9077,-163"/>
<polygon fill="#000000" stroke="#000000" points="385.9078,-166.5001 395.9077,-163 385.9077,-159.5001 385.9078,-166.5001"/>
</g>
<!-- MatGoogleMapsAutocompleteComponent  -->
<g id="node6" class="node">
<title>MatGoogleMapsAutocompleteComponent </title>
<polygon fill="#fb8072" stroke="#000000" points="912.5106,-252 653.4894,-252 653.4894,-216 912.5106,-216 912.5106,-252"/>
<text text-anchor="middle" x="783" y="-229.8" font-family="Times,serif" font-size="14.00" fill="#000000">MatGoogleMapsAutocompleteComponent </text>
</g>
<!-- MatGoogleMapsAutocompleteModule&#45;&gt;MatGoogleMapsAutocompleteComponent  -->
<g id="edge5" class="edge">
<title>MatGoogleMapsAutocompleteModule&#45;&gt;MatGoogleMapsAutocompleteComponent </title>
<path fill="none" stroke="#000000" stroke-dasharray="5,2" d="M629.7865,-175C675.3253,-175 716.8126,-175 716.8126,-175 716.8126,-175 716.8126,-205.9775 716.8126,-205.9775"/>
<polygon fill="#000000" stroke="#000000" points="713.3127,-205.9774 716.8126,-215.9775 720.3127,-205.9775 713.3127,-205.9774"/>
</g>
<!-- MatGoogleMapsAutocompleteDirective  -->
<g id="node7" class="node">
<title>MatGoogleMapsAutocompleteDirective </title>
<polygon fill="#fb8072" stroke="#000000" points="635.7611,-252 390.2389,-252 390.2389,-216 635.7611,-216 635.7611,-252"/>
<text text-anchor="middle" x="513" y="-229.8" font-family="Times,serif" font-size="14.00" fill="#000000">MatGoogleMapsAutocompleteDirective </text>
</g>
<!-- MatGoogleMapsAutocompleteModule&#45;&gt;MatGoogleMapsAutocompleteDirective  -->
<g id="edge6" class="edge">
<title>MatGoogleMapsAutocompleteModule&#45;&gt;MatGoogleMapsAutocompleteDirective </title>
<path fill="none" stroke="#000000" stroke-dasharray="5,2" d="M513,-187.1061C513,-187.1061 513,-205.991 513,-205.991"/>
<polygon fill="#000000" stroke="#000000" points="509.5001,-205.9909 513,-215.991 516.5001,-205.991 509.5001,-205.9909"/>
</g>
<!-- MatValidateAddressDirective  -->
<g id="node8" class="node">
<title>MatValidateAddressDirective </title>
<polygon fill="#fb8072" stroke="#000000" points="371.9263,-252 184.0737,-252 184.0737,-216 371.9263,-216 371.9263,-252"/>
<text text-anchor="middle" x="278" y="-229.8" font-family="Times,serif" font-size="14.00" fill="#000000">MatValidateAddressDirective </text>
</g>
<!-- MatGoogleMapsAutocompleteModule&#45;&gt;MatValidateAddressDirective  -->
<g id="edge7" class="edge">
<title>MatGoogleMapsAutocompleteModule&#45;&gt;MatValidateAddressDirective </title>
<path fill="none" stroke="#000000" stroke-dasharray="5,2" d="M396.2707,-175C346.1841,-175 298.9571,-175 298.9571,-175 298.9571,-175 298.9571,-205.9775 298.9571,-205.9775"/>
<polygon fill="#000000" stroke="#000000" points="295.4571,-205.9774 298.9571,-215.9775 302.4571,-205.9775 295.4571,-205.9774"/>
</g>
</g>
</svg>
