<?xml version="1.0" encoding="UTF-8" standalone="no"?>
<!DOCTYPE svg PUBLIC "-//W3C//DTD SVG 1.1//EN"
 "http://www.w3.org/Graphics/SVG/1.1/DTD/svg11.dtd">
<!-- Generated by graphviz version 2.40.1 (20161225.0304)
 -->
<!-- Title: dependencies Pages: 1 -->
<svg width="1099pt" height="284pt"
 viewBox="0.00 0.00 1099.00 284.00" xmlns="http://www.w3.org/2000/svg" xmlns:xlink="http://www.w3.org/1999/xlink">
<g id="graph0" class="graph" transform="scale(1 1) rotate(0) translate(4 280)">
<title>dependencies</title>
<polygon fill="#ffffff" stroke="transparent" points="-4,4 -4,-280 1095,-280 1095,4 -4,4"/>
<text text-anchor="start" x="524.5091" y="-42.4" font-family="sans-serif" font-weight="bold" font-size="14.00" fill="#000000">Legend</text>
<polygon fill="#ffffb3" stroke="transparent" points="311.5,-10 311.5,-30 331.5,-30 331.5,-10 311.5,-10"/>
<text text-anchor="start" x="335.129" y="-15.4" font-family="sans-serif" font-size="14.00" fill="#000000"> &#160;Declarations</text>
<polygon fill="#8dd3c7" stroke="transparent" points="424.5,-10 424.5,-30 444.5,-30 444.5,-10 424.5,-10"/>
<text text-anchor="start" x="448.2251" y="-15.4" font-family="sans-serif" font-size="14.00" fill="#000000"> &#160;Module</text>
<polygon fill="#80b1d3" stroke="transparent" points="510.5,-10 510.5,-30 530.5,-30 530.5,-10 510.5,-10"/>
<text text-anchor="start" x="534.2812" y="-15.4" font-family="sans-serif" font-size="14.00" fill="#000000"> &#160;Bootstrap</text>
<polygon fill="#fdb462" stroke="transparent" points="607.5,-10 607.5,-30 627.5,-30 627.5,-10 607.5,-10"/>
<text text-anchor="start" x="631.1732" y="-15.4" font-family="sans-serif" font-size="14.00" fill="#000000"> &#160;Providers</text>
<polygon fill="#fb8072" stroke="transparent" points="703.5,-10 703.5,-30 723.5,-30 723.5,-10 703.5,-10"/>
<text text-anchor="start" x="727.2258" y="-15.4" font-family="sans-serif" font-size="14.00" fill="#000000"> &#160;Exports</text>
<g id="clust1" class="cluster">
<title>cluster_MatGoogleMapsAutocompleteModule</title>
<polygon fill="none" stroke="#000000" stroke-dasharray="1,5" points="8,-70 8,-268 1083,-268 1083,-70 8,-70"/>
</g>
<g id="clust2" class="cluster">
<title>cluster_MatGoogleMapsAutocompleteModule_declarations</title>
<polygon fill="none" stroke="#000000" points="24,-78 24,-130 1070,-130 1070,-78 24,-78"/>
</g>
<g id="clust8" class="cluster">
<title>cluster_MatGoogleMapsAutocompleteModule_exports</title>
<polygon fill="none" stroke="#000000" points="16,-208 16,-260 1075,-260 1075,-208 16,-208"/>
</g>
<!-- MatGoogleMapsAutocompleteComponent -->
<g id="node1" class="node">
<title>MatGoogleMapsAutocompleteComponent</title>
<polygon fill="#ffffb3" stroke="#000000" points="1061.5111,-122 806.4889,-122 806.4889,-86 1061.5111,-86 1061.5111,-122"/>
<text text-anchor="middle" x="934" y="-99.8" font-family="Times,serif" font-size="14.00" fill="#000000">MatGoogleMapsAutocompleteComponent</text>
</g>
<!-- MatGoogleMapsAutocompleteModule -->
<g id="node5" class="node">
<title>MatGoogleMapsAutocompleteModule</title>
<polygon fill="#8dd3c7" stroke="#000000" points="499.7282,-187 496.7282,-191 475.7282,-191 472.7282,-187 266.2718,-187 266.2718,-151 499.7282,-151 499.7282,-187"/>
<text text-anchor="middle" x="383" y="-164.8" font-family="Times,serif" font-size="14.00" fill="#000000">MatGoogleMapsAutocompleteModule</text>
</g>
<!-- MatGoogleMapsAutocompleteComponent&#45;&gt;MatGoogleMapsAutocompleteModule -->
<g id="edge1" class="edge">
<title>MatGoogleMapsAutocompleteComponent&#45;&gt;MatGoogleMapsAutocompleteModule</title>
<path fill="none" stroke="#000000" d="M977.0018,-122.2667C977.0018,-140.5552 977.0018,-166 977.0018,-166 977.0018,-166 510.0011,-166 510.0011,-166"/>
<polygon fill="#000000" stroke="#000000" points="510.0011,-162.5001 500.0011,-166 510.001,-169.5001 510.0011,-162.5001"/>
</g>
<!-- MatGoogleMapsAutocompleteDirective -->
<g id="node2" class="node">
<title>MatGoogleMapsAutocompleteDirective</title>
<polygon fill="#ffffb3" stroke="#000000" points="788.2611,-122 545.7389,-122 545.7389,-86 788.2611,-86 788.2611,-122"/>
<text text-anchor="middle" x="667" y="-99.8" font-family="Times,serif" font-size="14.00" fill="#000000">MatGoogleMapsAutocompleteDirective</text>
</g>
<!-- MatGoogleMapsAutocompleteDirective&#45;&gt;MatGoogleMapsAutocompleteModule -->
<g id="edge2" class="edge">
<title>MatGoogleMapsAutocompleteDirective&#45;&gt;MatGoogleMapsAutocompleteModule</title>
<path fill="none" stroke="#000000" d="M707.3768,-122.0091C707.3768,-138.0494 707.3768,-159 707.3768,-159 707.3768,-159 510.1075,-159 510.1075,-159"/>
<polygon fill="#000000" stroke="#000000" points="510.1075,-155.5001 500.1075,-159 510.1074,-162.5001 510.1075,-155.5001"/>
</g>
<!-- MatSearchGoogleMapsAutocompleteComponent -->
<g id="node3" class="node">
<title>MatSearchGoogleMapsAutocompleteComponent</title>
<polygon fill="#ffffb3" stroke="#000000" points="527.5979,-122 234.4021,-122 234.4021,-86 527.5979,-86 527.5979,-122"/>
<text text-anchor="middle" x="381" y="-99.8" font-family="Times,serif" font-size="14.00" fill="#000000">MatSearchGoogleMapsAutocompleteComponent</text>
</g>
<!-- MatSearchGoogleMapsAutocompleteComponent&#45;&gt;MatGoogleMapsAutocompleteModule -->
<g id="edge3" class="edge">
<title>MatSearchGoogleMapsAutocompleteComponent&#45;&gt;MatGoogleMapsAutocompleteModule</title>
<path fill="none" stroke="#000000" d="M383,-122.1061C383,-122.1061 383,-140.991 383,-140.991"/>
<polygon fill="#000000" stroke="#000000" points="379.5001,-140.9909 383,-150.991 386.5001,-140.991 379.5001,-140.9909"/>
</g>
<!-- MatValidateAddressDirective -->
<g id="node4" class="node">
<title>MatValidateAddressDirective</title>
<polygon fill="#ffffb3" stroke="#000000" points="215.9258,-122 32.0742,-122 32.0742,-86 215.9258,-86 215.9258,-122"/>
<text text-anchor="middle" x="124" y="-99.8" font-family="Times,serif" font-size="14.00" fill="#000000">MatValidateAddressDirective</text>
</g>
<!-- MatValidateAddressDirective&#45;&gt;MatGoogleMapsAutocompleteModule -->
<g id="edge4" class="edge">
<title>MatValidateAddressDirective&#45;&gt;MatGoogleMapsAutocompleteModule</title>
<path fill="none" stroke="#000000" d="M151.821,-122.0225C151.821,-139.3734 151.821,-163 151.821,-163 151.821,-163 256.0559,-163 256.0559,-163"/>
<polygon fill="#000000" stroke="#000000" points="256.056,-166.5001 266.0559,-163 256.0559,-159.5001 256.056,-166.5001"/>
</g>
<!-- MatGoogleMapsAutocompleteComponent  -->
<g id="node6" class="node">
<title>MatGoogleMapsAutocompleteComponent </title>
<polygon fill="#fb8072" stroke="#000000" points="1066.5106,-252 807.4894,-252 807.4894,-216 1066.5106,-216 1066.5106,-252"/>
<text text-anchor="middle" x="937" y="-229.8" font-family="Times,serif" font-size="14.00" fill="#000000">MatGoogleMapsAutocompleteComponent </text>
</g>
<!-- MatGoogleMapsAutocompleteModule&#45;&gt;MatGoogleMapsAutocompleteComponent  -->
<g id="edge5" class="edge">
<title>MatGoogleMapsAutocompleteModule&#45;&gt;MatGoogleMapsAutocompleteComponent </title>
<path fill="none" stroke="#000000" stroke-dasharray="5,2" d="M499.8318,-173C650.1793,-173 892.2482,-173 892.2482,-173 892.2482,-173 892.2482,-205.698 892.2482,-205.698"/>
<polygon fill="#000000" stroke="#000000" points="888.7483,-205.698 892.2482,-215.698 895.7483,-205.698 888.7483,-205.698"/>
</g>
<!-- MatGoogleMapsAutocompleteDirective  -->
<g id="node7" class="node">
<title>MatGoogleMapsAutocompleteDirective </title>
<polygon fill="#fb8072" stroke="#000000" points="789.7611,-252 544.2389,-252 544.2389,-216 789.7611,-216 789.7611,-252"/>
<text text-anchor="middle" x="667" y="-229.8" font-family="Times,serif" font-size="14.00" fill="#000000">MatGoogleMapsAutocompleteDirective </text>
</g>
<!-- MatGoogleMapsAutocompleteModule&#45;&gt;MatGoogleMapsAutocompleteDirective  -->
<g id="edge6" class="edge">
<title>MatGoogleMapsAutocompleteModule&#45;&gt;MatGoogleMapsAutocompleteDirective </title>
<path fill="none" stroke="#000000" stroke-dasharray="5,2" d="M499.8167,-180C562.3411,-180 626.6232,-180 626.6232,-180 626.6232,-180 626.6232,-205.7181 626.6232,-205.7181"/>
<polygon fill="#000000" stroke="#000000" points="623.1233,-205.718 626.6232,-215.7181 630.1233,-205.7181 623.1233,-205.718"/>
</g>
<!-- MatSearchGoogleMapsAutocompleteComponent  -->
<g id="node8" class="node">
<title>MatSearchGoogleMapsAutocompleteComponent </title>
<polygon fill="#fb8072" stroke="#000000" points="526.5976,-252 229.4024,-252 229.4024,-216 526.5976,-216 526.5976,-252"/>
<text text-anchor="middle" x="378" y="-229.8" font-family="Times,serif" font-size="14.00" fill="#000000">MatSearchGoogleMapsAutocompleteComponent </text>
</g>
<!-- MatGoogleMapsAutocompleteModule&#45;&gt;MatSearchGoogleMapsAutocompleteComponent  -->
<g id="edge7" class="edge">
<title>MatGoogleMapsAutocompleteModule&#45;&gt;MatSearchGoogleMapsAutocompleteComponent </title>
<path fill="none" stroke="#000000" stroke-dasharray="5,2" d="M383,-187.1061C383,-187.1061 383,-205.991 383,-205.991"/>
<polygon fill="#000000" stroke="#000000" points="379.5001,-205.9909 383,-215.991 386.5001,-205.991 379.5001,-205.9909"/>
</g>
<!-- MatValidateAddressDirective  -->
<g id="node9" class="node">
<title>MatValidateAddressDirective </title>
<polygon fill="#fb8072" stroke="#000000" points="211.9263,-252 24.0737,-252 24.0737,-216 211.9263,-216 211.9263,-252"/>
<text text-anchor="middle" x="118" y="-229.8" font-family="Times,serif" font-size="14.00" fill="#000000">MatValidateAddressDirective </text>
</g>
<!-- MatGoogleMapsAutocompleteModule&#45;&gt;MatValidateAddressDirective  -->
<g id="edge8" class="edge">
<title>MatGoogleMapsAutocompleteModule&#45;&gt;MatValidateAddressDirective </title>
<path fill="none" stroke="#000000" stroke-dasharray="5,2" d="M265.8685,-175C184.9875,-175 91.929,-175 91.929,-175 91.929,-175 91.929,-205.9775 91.929,-205.9775"/>
<polygon fill="#000000" stroke="#000000" points="88.4291,-205.9774 91.929,-215.9775 95.4291,-205.9775 88.4291,-205.9774"/>
</g>
</g>
</svg>
