<?xml version="1.0" standalone="no"?>
<!DOCTYPE svg PUBLIC "-//W3C//DTD SVG 20010904//EN"
 "http://www.w3.org/TR/2001/REC-SVG-20010904/DTD/svg10.dtd">
<svg version="1.0" xmlns="http://www.w3.org/2000/svg"
 width="796.000000pt" height="796.000000pt" viewBox="0 0 796.000000 796.000000"
 preserveAspectRatio="xMidYMid meet">
<metadata>
Created by potrace 1.11, written by Peter Selinger 2001-2013
</metadata>
<g transform="translate(0.000000,796.000000) scale(0.100000,-0.100000)"
fill="#000000" stroke="none">
<path d="M2157 7301 c-994 -362 -1811 -662 -1814 -665 -8 -8 536 -4877 546
-4888 12 -13 3083 -1748 3090 -1745 101 52 3084 1744 3087 1751 5 17 562 4881
559 4884 -4 5 -3647 1322 -3654 1321 -3 0 -820 -296 -1814 -658z m1494 -1240
c387 -187 2343 -1142 2356 -1150 8 -4 -146 -105 -410 -268 -232 -144 -429
-268 -439 -275 -14 -11 43 -42 418 -223 238 -115 433 -212 433 -215 1 -3 -192
-124 -427 -269 -235 -144 -568 -350 -740 -457 l-312 -193 -813 398 c-446 220
-1025 504 -1285 633 l-472 233 427 266 c236 146 427 269 426 274 -1 5 -191
101 -423 215 -232 114 -421 211 -420 216 1 5 329 214 728 466 400 251 728 457
728 457 1 1 102 -48 225 -108z"/>
</g>
</svg>
